<svg width="16" height="17" viewBox="0 0 16 17" fill="none" xmlns="http://www.w3.org/2000/svg">
<g clip-path="url(#clip0_31_445)">
<path fill-rule="evenodd" clip-rule="evenodd" d="M7.493 0.514976C7.442 0.520976 7.268 0.538976 7.107 0.554976C5.234 0.741976 3.347 1.70798 2.071 3.13398C0.660001 4.71098 -0.0569991 6.66798 0.00900088 8.75298C0.124001 12.354 2.599 15.403 6.11 16.271C8.169 16.78 10.433 16.417 12.227 15.291C14.017 14.166 15.27 12.433 15.771 10.387C15.943 9.68598 15.983 9.32898 15.983 8.49998C15.983 7.67098 15.943 7.31398 15.771 6.61298C14.979 3.37798 12.315 0.997976 9 0.563976C8.716 0.526976 7.683 0.493976 7.493 0.514976ZM8.853 2.06298C9.967 2.20698 11.01 2.63598 11.944 3.33398C12.273 3.57998 12.92 4.22698 13.166 4.55598C13.727 5.30698 14.142 6.18998 14.33 7.03498C14.544 7.99998 14.544 8.99998 14.33 9.96498C13.916 11.826 12.605 13.478 10.867 14.328C10.239 14.635 9.591 14.836 8.88 14.944C8.456 15.009 7.544 15.009 7.12 14.944C5.172 14.648 3.528 13.585 2.493 11.951C2.279 11.614 1.999 11.026 1.859 10.619C1.618 9.92198 1.514 9.28098 1.514 8.49998C1.514 7.46098 1.715 6.57498 2.16 5.65998C2.5 4.96198 2.846 4.47998 3.413 3.91298C3.98 3.34598 4.462 2.99998 5.16 2.65998C6.313 2.09898 7.567 1.89698 8.853 2.06298ZM7.706 4.78998C7.482 4.86298 7.355 4.99098 7.293 5.20498C7.257 5.32698 7.253 5.60598 7.259 7.31598C7.267 9.28598 7.267 9.28698 7.325 9.39598C7.398 9.53298 7.538 9.65698 7.671 9.70398C7.803 9.74998 8.197 9.74998 8.329 9.70398C8.462 9.65698 8.602 9.53298 8.675 9.39598C8.733 9.28698 8.733 9.28598 8.741 7.31598C8.749 5.16398 8.749 5.16198 8.596 4.98098C8.472 4.83298 8.339 4.78398 8.04 4.77598C7.893 4.77198 7.743 4.77798 7.706 4.78998ZM7.786 11.03C7.597 11.092 7.41 11.253 7.319 11.432C7.249 11.572 7.237 11.825 7.294 11.995C7.388 12.28 7.697 12.5 8 12.5C8.303 12.5 8.612 12.28 8.706 11.995C8.763 11.825 8.751 11.572 8.681 11.432C8.616 11.304 8.46 11.146 8.333 11.08C8.217 11.02 7.904 10.991 7.786 11.03Z" fill="black"/>
</g>
<defs>
<clipPath id="clip0_31_445">
<rect width="16" height="16" fill="white" transform="translate(0 0.5)"/>
</clipPath>
</defs>
</svg>
