<svg width="20" height="20" viewBox="0 0 20 20" fill="none" xmlns="http://www.w3.org/2000/svg">
<g clip-path="url(#clip0_31_445)">
<path fill-rule="evenodd" clip-rule="evenodd" d="M9.36625 0.0187511C9.3025 0.0262511 9.085 0.0487511 8.88375 0.0687511C6.5425 0.302501 4.18375 1.51 2.58875 3.2925C0.825001 5.26375 -0.0712489 7.71 0.0112511 10.3163C0.155001 14.8175 3.24875 18.6288 7.6375 19.7138C10.2113 20.35 13.0413 19.8963 15.2838 18.4888C17.5213 17.0825 19.0875 14.9163 19.7138 12.3588C19.9288 11.4825 19.9788 11.0363 19.9788 10C19.9788 8.96375 19.9288 8.5175 19.7138 7.64125C18.7238 3.5975 15.3938 0.622501 11.25 0.0800011C10.895 0.0337511 9.60375 -0.0074989 9.36625 0.0187511ZM11.0663 1.95375C12.4588 2.13375 13.7625 2.67 14.93 3.5425C15.3413 3.85 16.15 4.65875 16.4575 5.07C17.1588 6.00875 17.6775 7.1125 17.9125 8.16875C18.18 9.375 18.18 10.625 17.9125 11.8313C17.395 14.1575 15.7563 16.2225 13.5838 17.285C12.7988 17.6688 11.9888 17.92 11.1 18.055C10.57 18.1363 9.43 18.1363 8.9 18.055C6.465 17.685 4.41 16.3563 3.11625 14.3138C2.84875 13.8925 2.49875 13.1575 2.32375 12.6488C2.0225 11.7775 1.8925 10.9763 1.8925 10C1.8925 8.70125 2.14375 7.59375 2.7 6.45C3.125 5.5775 3.5575 4.975 4.26625 4.26625C4.975 3.5575 5.5775 3.125 6.45 2.7C7.89125 1.99875 9.45875 1.74625 11.0663 1.95375ZM9.6325 5.3625C9.3525 5.45375 9.19375 5.61375 9.11625 5.88125C9.07125 6.03375 9.06625 6.3825 9.07375 8.52C9.08375 10.9825 9.08375 10.9838 9.15625 11.12C9.2475 11.2913 9.4225 11.4463 9.58875 11.505C9.75375 11.5625 10.2463 11.5625 10.4113 11.505C10.5775 11.4463 10.7525 11.2913 10.8438 11.12C10.9163 10.9838 10.9163 10.9825 10.9263 8.52C10.9363 5.83 10.9363 5.8275 10.745 5.60125C10.59 5.41625 10.4238 5.355 10.05 5.345C9.86625 5.34 9.67875 5.3475 9.6325 5.3625ZM9.7325 13.1625C9.49625 13.24 9.2625 13.4413 9.14875 13.665C9.06125 13.84 9.04625 14.1563 9.1175 14.3688C9.235 14.725 9.62125 15 10 15C10.3788 15 10.765 14.725 10.8825 14.3688C10.9538 14.1563 10.9388 13.84 10.8513 13.665C10.77 13.505 10.575 13.3075 10.4163 13.225C10.2713 13.15 9.88 13.1138 9.7325 13.1625Z" fill="currentColor"/>
</g>
<defs>
<clipPath id="clip0_31_445">
<rect width="20" height="20" fill="white"/>
</clipPath>
</defs>
</svg>
