<svg width="18" height="18" viewBox="0 0 18 18" fill="none" xmlns="http://www.w3.org/2000/svg">
<path fill-rule="evenodd" clip-rule="evenodd" d="M14.5882 0.996561C14.3423 0.852612 14.0277 0.938042 13.8857 1.18736L12.3128 3.94957C11.2413 3.44799 10.132 3.19153 9.00912 3.19153C5.99209 3.19153 3.0735 5.04416 0.719951 8.52694L0.710616 8.54063L0.702452 8.55246C0.624057 8.6647 0.622056 8.79668 0.70206 8.90764C2.43876 11.4873 4.48524 13.1768 6.65254 13.8869L5.39958 16.0857C5.25754 16.3351 5.34182 16.6539 5.5878 16.7978L5.8105 16.9281C6.05648 17.0721 6.37101 16.9867 6.51304 16.7373L14.9991 1.83896C15.1412 1.58964 15.0569 1.27084 14.8109 1.12689L14.5882 0.996561ZM11.6306 5.14741C10.7584 4.76342 9.87775 4.57626 9.00912 4.57626C6.81698 4.57626 4.54767 5.76845 2.53226 8.30824C2.33879 8.55207 2.33879 8.90751 2.53226 9.15135C4.043 11.0552 5.69637 12.2022 7.353 12.6572L8.21925 11.1364C7.2297 10.8207 6.41142 9.94032 6.41142 8.73117C6.41142 7.20169 7.58372 5.96167 9.02957 5.96167C9.69698 5.96167 10.3061 6.22588 10.7686 6.66079L11.6306 5.14741ZM10.0536 7.91597C9.83095 7.57075 9.46485 7.3464 9.02957 7.3464C8.30603 7.3464 7.71428 7.9654 7.71428 8.73015C7.71428 9.23556 8.25634 9.82615 8.93725 9.87585L10.0536 7.91597Z" fill="black"/>
<path d="M9.44183 14.256C12.2986 14.0881 15.0465 12.2584 17.2841 8.95562C17.331 8.88645 17.3571 8.8149 17.3571 8.72979C17.3571 8.64866 17.3346 8.5809 17.29 8.51494C16.4301 7.2435 15.4945 6.18996 14.5062 5.36499L13.8253 6.56047C14.3927 7.0491 14.9484 7.6307 15.486 8.3082C15.6795 8.55204 15.6795 8.90747 15.486 9.15131C13.8649 11.1944 12.0795 12.3658 10.302 12.7459L9.44183 14.256Z" fill="black"/>
</svg>
